<?xml version="1.0" encoding="UTF-8"?>
<svg width="24px" height="48px" viewBox="0 0 24 48" version="1.1" xmlns="http://www.w3.org/2000/svg" xmlns:xlink="http://www.w3.org/1999/xlink">
    <title>Artboard</title>
    <g id="Artboard" stroke="none" stroke-width="1" fill="none" fill-rule="evenodd">
        <g id="Group-2" transform="translate(1.000000, 25.000000)" fill="#F3B237">
            <path d="M17.4280854,11.0081467 L21.9915942,11.0081467 C21.9940089,11.0565769 21.9987112,11.1069189 21.9987112,11.1572608 C21.9988383,13.8441173 22.0015071,16.5309737 21.9971861,19.2177028 C21.9952798,20.3229309 21.2035158,21.4951966 20.2110785,21.8178947 C19.8605672,21.9319605 19.4762503,21.9910964 19.1071841,21.9918611 C13.7601721,22.0025667 8.41303305,22.0007824 3.06602105,21.9973413 C2.36105883,21.9968315 1.68786883,21.8715502 1.1229586,21.3998656 C0.583593237,20.9495922 0.191905195,20.404625 0.0523615642,19.706338 C0.0101680438,19.4956666 0.00343233118,19.2754367 0.00317815334,19.0595399 C0.000255108256,16.4309271 0.00203435309,13.8023144 -1.42108547e-14,11.1735741 C-1.42108547e-14,11.0612925 0.0125827332,11.0006273 0.15136383,11.0008822 C1.56344879,11.0034312 2.97566083,10.9987156 4.38774578,10.9978145 C4.63976311,10.9975686 4.64954895,11.0008822 4.66187658,11.2690326 C4.68970905,11.8740277 4.76952089,12.4711211 4.9689234,13.0431073 C5.64363846,14.9777663 6.94388517,16.3299884 8.86280072,17.0300597 C10.6991085,17.6999258 12.5157175,17.5462237 14.2082877,16.5701002 C15.4604948,15.8479805 16.3858292,14.7943688 16.9506123,13.4404898 C17.2612176,12.6960666 17.3815708,11.9206737 17.4172828,11.1245067 C17.4188079,11.0931545 17.4230018,11.0618023 17.4280854,11.0081467" id="Fill-6"></path>
            <path d="M18.3196268,5.48841674 C18.6736965,5.48841674 19.0278934,5.48969122 19.3819631,5.4880344 C19.8422791,5.48599523 20.1399214,5.21797231 20.1481822,4.76107162 C20.1613994,4.03194222 20.1615265,3.30243048 20.1502156,2.57330109 C20.1438611,2.16151695 19.8502857,1.85576945 19.4399156,1.8465932 C18.7166526,1.83053477 17.9925,1.83104456 17.2692369,1.8465932 C16.8527665,1.85551456 16.5230979,2.18063413 16.5135662,2.59866322 C16.4970447,3.32218491 16.4964092,4.04685363 16.5169976,4.77024787 C16.5304691,5.24078549 16.8180713,5.48625013 17.2890628,5.48816185 C17.6325841,5.48956377 17.9761055,5.48841674 18.3196268,5.48841674 M21.9916069,9.17726855 C21.9330189,9.17726855 21.8913337,9.17726855 21.8496486,9.17726855 C20.3478388,9.17726855 18.8460291,9.17599408 17.3442194,9.18007241 C17.2255183,9.1803273 17.1684554,9.14591637 17.1261348,9.03197796 C17.0089588,8.71565229 16.8896223,8.39881683 16.7475369,8.09306933 C16.3132741,7.15938607 15.6266127,6.43905058 14.8105747,5.82832027 C13.5034652,4.8501577 12.026692,4.49827406 10.4196527,4.6319669 C9.40929578,4.71608251 8.45168079,4.99124251 7.60831873,5.56233652 C6.3496301,6.41483548 5.40154678,7.52375959 4.93449501,8.99820427 C4.89255567,9.13049518 4.82850286,9.18096454 4.68705289,9.18045857 C3.18003252,9.17510194 1.67288505,9.17433725 0.165864676,9.17752345 C0.0367423363,9.17777835 0.00128452848,9.13176966 0.0014116174,9.01209609 C0.00331795115,6.95495965 -0.00443447278,4.89782321 0.00992657483,2.84081422 C0.0124683532,2.49160699 0.0877049919,2.13832143 0.166373031,1.79535915 C0.256224896,1.40371178 0.487526724,1.08483715 0.792285947,0.825098343 C1.42709509,0.283954589 2.15645838,-0.000509107573 2.99829537,8.8817842e-16 C8.38140062,0.00344177711 13.7643788,0.00267708975 19.147484,0.003569225 C20.3456783,0.00382412078 21.1986991,0.576192608 21.7510276,1.61145184 C21.9609785,2.00513838 21.991734,2.45566668 21.9938945,2.89306785 C22.0039345,4.95007684 21.9985968,7.00721328 21.9984697,9.06434972 C21.9984697,9.09519211 21.9947841,9.1260345 21.9916069,9.17726855" id="Fill-9"></path>
            <path d="M11.3028317,15.5686657 C10.4260452,15.5689206 9.74713624,15.5166669 9.10114328,15.3103288 C7.79695681,14.8937016 6.94940083,14.02935 6.61706331,12.6761083 C6.39402226,11.768297 6.38563439,10.8564073 6.50293746,9.93890991 C6.57779283,9.35392408 6.76575734,8.79735913 7.02285822,8.26908761 C7.11347262,8.08314114 7.26140412,7.92039018 7.40209155,7.76413906 C7.92239358,7.18590797 8.57207212,6.8245932 9.32354888,6.63367625 C10.2120275,6.40796604 11.1097836,6.38438817 12.0133858,6.50240492 C12.8850887,6.61621589 13.6894344,6.91278714 14.3523302,7.49993958 C14.6081602,7.72654193 14.8174757,8.02081912 14.9961627,8.3156061 C15.2607618,8.75224258 15.3865798,9.24444634 15.4630874,9.75092427 C15.6195338,10.7868207 15.6230923,11.8187663 15.3277377,12.8282811 C15.0316205,13.8402174 14.4337942,14.6167574 13.4563534,15.0823245 C12.7084351,15.4384139 11.9245507,15.5797536 11.3028317,15.5686657" id="Fill-15"></path>
        </g>
        <g id="Group-2" transform="translate(1.000000, 1.000000)" fill="#FFFFFF">
            <path d="M17.4280854,11.0081467 L21.9915942,11.0081467 C21.9940089,11.0565769 21.9987112,11.1069189 21.9987112,11.1572608 C21.9988383,13.8441173 22.0015071,16.5309737 21.9971861,19.2177028 C21.9952798,20.3229309 21.2035158,21.4951966 20.2110785,21.8178947 C19.8605672,21.9319605 19.4762503,21.9910964 19.1071841,21.9918611 C13.7601721,22.0025667 8.41303305,22.0007824 3.06602105,21.9973413 C2.36105883,21.9968315 1.68786883,21.8715502 1.1229586,21.3998656 C0.583593237,20.9495922 0.191905195,20.404625 0.0523615642,19.706338 C0.0101680438,19.4956666 0.00343233118,19.2754367 0.00317815334,19.0595399 C0.000255108256,16.4309271 0.00203435309,13.8023144 -1.42108547e-14,11.1735741 C-1.42108547e-14,11.0612925 0.0125827332,11.0006273 0.15136383,11.0008822 C1.56344879,11.0034312 2.97566083,10.9987156 4.38774578,10.9978145 C4.63976311,10.9975686 4.64954895,11.0008822 4.66187658,11.2690326 C4.68970905,11.8740277 4.76952089,12.4711211 4.9689234,13.0431073 C5.64363846,14.9777663 6.94388517,16.3299884 8.86280072,17.0300597 C10.6991085,17.6999258 12.5157175,17.5462237 14.2082877,16.5701002 C15.4604948,15.8479805 16.3858292,14.7943688 16.9506123,13.4404898 C17.2612176,12.6960666 17.3815708,11.9206737 17.4172828,11.1245067 C17.4188079,11.0931545 17.4230018,11.0618023 17.4280854,11.0081467" id="Fill-6"></path>
            <path d="M18.3196268,5.48841674 C18.6736965,5.48841674 19.0278934,5.48969122 19.3819631,5.4880344 C19.8422791,5.48599523 20.1399214,5.21797231 20.1481822,4.76107162 C20.1613994,4.03194222 20.1615265,3.30243048 20.1502156,2.57330109 C20.1438611,2.16151695 19.8502857,1.85576945 19.4399156,1.8465932 C18.7166526,1.83053477 17.9925,1.83104456 17.2692369,1.8465932 C16.8527665,1.85551456 16.5230979,2.18063413 16.5135662,2.59866322 C16.4970447,3.32218491 16.4964092,4.04685363 16.5169976,4.77024787 C16.5304691,5.24078549 16.8180713,5.48625013 17.2890628,5.48816185 C17.6325841,5.48956377 17.9761055,5.48841674 18.3196268,5.48841674 M21.9916069,9.17726855 C21.9330189,9.17726855 21.8913337,9.17726855 21.8496486,9.17726855 C20.3478388,9.17726855 18.8460291,9.17599408 17.3442194,9.18007241 C17.2255183,9.1803273 17.1684554,9.14591637 17.1261348,9.03197796 C17.0089588,8.71565229 16.8896223,8.39881683 16.7475369,8.09306933 C16.3132741,7.15938607 15.6266127,6.43905058 14.8105747,5.82832027 C13.5034652,4.8501577 12.026692,4.49827406 10.4196527,4.6319669 C9.40929578,4.71608251 8.45168079,4.99124251 7.60831873,5.56233652 C6.3496301,6.41483548 5.40154678,7.52375959 4.93449501,8.99820427 C4.89255567,9.13049518 4.82850286,9.18096454 4.68705289,9.18045857 C3.18003252,9.17510194 1.67288505,9.17433725 0.165864676,9.17752345 C0.0367423363,9.17777835 0.00128452848,9.13176966 0.0014116174,9.01209609 C0.00331795115,6.95495965 -0.00443447278,4.89782321 0.00992657483,2.84081422 C0.0124683532,2.49160699 0.0877049919,2.13832143 0.166373031,1.79535915 C0.256224896,1.40371178 0.487526724,1.08483715 0.792285947,0.825098343 C1.42709509,0.283954589 2.15645838,-0.000509107573 2.99829537,8.8817842e-16 C8.38140062,0.00344177711 13.7643788,0.00267708975 19.147484,0.003569225 C20.3456783,0.00382412078 21.1986991,0.576192608 21.7510276,1.61145184 C21.9609785,2.00513838 21.991734,2.45566668 21.9938945,2.89306785 C22.0039345,4.95007684 21.9985968,7.00721328 21.9984697,9.06434972 C21.9984697,9.09519211 21.9947841,9.1260345 21.9916069,9.17726855" id="Fill-9"></path>
            <path d="M11.3028317,15.5686657 C10.4260452,15.5689206 9.74713624,15.5166669 9.10114328,15.3103288 C7.79695681,14.8937016 6.94940083,14.02935 6.61706331,12.6761083 C6.39402226,11.768297 6.38563439,10.8564073 6.50293746,9.93890991 C6.57779283,9.35392408 6.76575734,8.79735913 7.02285822,8.26908761 C7.11347262,8.08314114 7.26140412,7.92039018 7.40209155,7.76413906 C7.92239358,7.18590797 8.57207212,6.8245932 9.32354888,6.63367625 C10.2120275,6.40796604 11.1097836,6.38438817 12.0133858,6.50240492 C12.8850887,6.61621589 13.6894344,6.91278714 14.3523302,7.49993958 C14.6081602,7.72654193 14.8174757,8.02081912 14.9961627,8.3156061 C15.2607618,8.75224258 15.3865798,9.24444634 15.4630874,9.75092427 C15.6195338,10.7868207 15.6230923,11.8187663 15.3277377,12.8282811 C15.0316205,13.8402174 14.4337942,14.6167574 13.4563534,15.0823245 C12.7084351,15.4384139 11.9245507,15.5797536 11.3028317,15.5686657" id="Fill-15"></path>
        </g>
    </g>
</svg>