<?xml version="1.0" encoding="UTF-8"?>
<svg width="24px" height="48px" viewBox="0 0 24 48" version="1.1" xmlns="http://www.w3.org/2000/svg" xmlns:xlink="http://www.w3.org/1999/xlink">
    <title>Artboard</title>
    <g id="Artboard" stroke="none" stroke-width="1" fill="none" fill-rule="evenodd">
        <path d="M8.02896086,6.43575675 C8.08932566,5.52373963 7.42620249,4.74490556 6.54080979,4.68831869 C5.56493343,4.62574178 4.75350349,5.29127467 4.69046994,6.20609565 C4.61981135,7.22873754 5.24023437,7.95952376 6.23720664,8.02809072 C7.18512456,8.09334405 7.96503772,7.40015496 8.02896086,6.43575675 L8.02896086,6.43575675 Z M4.67699905,9.55160284 C4.67699905,9.80229284 4.67725322,10.0441889 4.67699905,10.2859576 C4.67331363,13.2473368 4.67026361,16.2085886 4.66352707,19.1699679 C4.66327401,19.3026411 4.70699083,19.3413853 4.8372517,19.3406316 C5.7626758,19.3355227 6.68809989,19.3374344 7.61352398,19.3362874 C7.82156013,19.3360325 7.82206847,19.3342482 7.82206847,19.1209004 C7.8225768,15.9953683 7.82283097,12.8699636 7.82321222,9.7444315 C7.82321222,9.68300161 7.82321222,9.62144428 7.82321222,9.55160284 L4.67699905,9.55160284 Z M9.70621261,9.54280893 C9.70240009,9.58779804 9.69909592,9.60857204 9.69909592,9.62934605 C9.70087509,12.7915832 9.70303551,15.9536928 9.70494177,19.11593 C9.70506885,19.3350129 9.70430635,19.3370521 9.91920502,19.3373069 C10.8391645,19.3381991 11.7592511,19.3342482 12.6793377,19.3414072 C12.8376841,19.3426598 12.8705988,19.2886219 12.8698363,19.1409097 C12.8622112,17.6180349 12.8606862,16.09516 12.8594154,14.5722851 C12.8591612,14.2127546 12.8522987,13.8524594 12.8733946,13.4939485 C12.922576,12.6578903 13.4514987,11.9849655 14.3387977,11.8622331 C15.1513714,11.7496966 15.7512068,12.1014528 16.0178286,12.8742969 C16.1629583,13.2950023 16.1787167,13.7339329 16.1788437,14.1733732 C16.1789708,15.8338918 16.1794792,17.494283 16.1742687,19.1546741 C16.1738875,19.2918081 16.209598,19.3401108 16.3504068,19.3394736 C17.2967998,19.3352678 18.2433198,19.3361599 19.1898398,19.3399834 C19.3110777,19.3404931 19.3467882,19.2952491 19.338782,19.1800362 C19.3273444,19.016648 19.3246757,18.8524952 19.3246757,18.6885972 C19.3245486,17.0863223 19.3269632,15.4840474 19.3260736,13.8817724 C19.3256923,13.240837 19.2775276,12.6051269 19.1201979,11.9802499 C18.8688261,10.9818231 18.3294826,10.2032439 17.4044397,9.7202164 C16.7484333,9.37776391 16.051887,9.2635706 15.3164532,9.36297995 C14.7542346,9.4389389 14.2357327,9.62195407 13.800852,9.98772953 C13.5154219,10.2278414 13.2616356,10.5058052 12.9942513,10.7674557 C12.9552366,10.8055627 12.9196531,10.8472381 12.8672946,10.9035701 C12.8672946,10.4943349 12.8608133,10.1158147 12.8705988,9.73767676 C12.8744113,9.59085679 12.8425132,9.53771102 12.6822606,9.5389855 C11.7464156,9.54688726 10.8104436,9.54280893 9.87447153,9.54280893 C9.82274843,9.54280893 9.77089825,9.54280893 9.70621261,9.54280893 L9.70621261,9.54280893 Z M22.9986678,11.950682 C22.9986678,14.9074731 22.9976511,17.8641368 23,20.8209279 C23,21.2997496 22.9343634,21.756268 22.6590999,22.1655031 C22.2985632,22.7014215 21.797599,22.9746698 21.1550634,22.9953164 C21.0864381,22.997483 21.0176858,22.9990442 20.9489335,22.9990442 C15.0253043,22.9990442 9.10180214,22.9992673 3.17817294,22.99863 C2.68902747,22.99863 2.22110499,22.9256024 1.81888482,22.6106786 C1.29034337,22.1968553 1.00110069,21.664378 1.0009736,20.988267 C1,14.9584522 0.999321514,8.92863754 1.00122777,2.89882283 C1.00160902,1.82150579 1.65698008,1.08880785 2.72550051,1.0346425 C3.64876418,0.987869122 4.57533203,1.00214329 5.50050196,1.00176094 C10.6570535,1 15.8134779,0.99946688 20.9700294,1.00762355 C21.2719804,1.00813334 21.5891816,1.04267172 21.8725784,1.13940467 C22.590983,1.38474186 22.982274,1.99559961 22.994474,2.82668732 C23.0040053,3.47705392 22.9982865,4.12780286 22.9984136,4.77842435 C22.9986678,7.16909193 22.9984136,9.55988695 22.9986678,11.950682 L22.9986678,11.950682 Z" id="Fill-1" fill="#FFFFFF"></path>
        <path d="M8.02896086,30.4357568 C8.08932566,29.5237396 7.42620249,28.7449056 6.54080979,28.6883187 C5.56493343,28.6257418 4.75350349,29.2912747 4.69046994,30.2060956 C4.61981135,31.2287375 5.24023437,31.9595238 6.23720664,32.0280907 C7.18512456,32.093344 7.96503772,31.400155 8.02896086,30.4357568 L8.02896086,30.4357568 Z M4.67699905,33.5516028 C4.67699905,33.8022928 4.67725322,34.0441889 4.67699905,34.2859576 C4.67331363,37.2473368 4.67026361,40.2085886 4.66352707,43.1699679 C4.66327401,43.3026411 4.70699083,43.3413853 4.8372517,43.3406316 C5.7626758,43.3355227 6.68809989,43.3374344 7.61352398,43.3362874 C7.82156013,43.3360325 7.82206847,43.3342482 7.82206847,43.1209004 C7.8225768,39.9953683 7.82283097,36.8699636 7.82321222,33.7444315 C7.82321222,33.6830016 7.82321222,33.6214443 7.82321222,33.5516028 L4.67699905,33.5516028 Z M9.70621261,33.5428089 C9.70240009,33.587798 9.69909592,33.608572 9.69909592,33.6293461 C9.70087509,36.7915832 9.70303551,39.9536928 9.70494177,43.11593 C9.70506885,43.3350129 9.70430635,43.3370521 9.91920502,43.3373069 C10.8391645,43.3381991 11.7592511,43.3342482 12.6793377,43.3414072 C12.8376841,43.3426598 12.8705988,43.2886219 12.8698363,43.1409097 C12.8622112,41.6180349 12.8606862,40.09516 12.8594154,38.5722851 C12.8591612,38.2127546 12.8522987,37.8524594 12.8733946,37.4939485 C12.922576,36.6578903 13.4514987,35.9849655 14.3387977,35.8622331 C15.1513714,35.7496966 15.7512068,36.1014528 16.0178286,36.8742969 C16.1629583,37.2950023 16.1787167,37.7339329 16.1788437,38.1733732 C16.1789708,39.8338918 16.1794792,41.494283 16.1742687,43.1546741 C16.1738875,43.2918081 16.209598,43.3401108 16.3504068,43.3394736 C17.2967998,43.3352678 18.2433198,43.3361599 19.1898398,43.3399834 C19.3110777,43.3404931 19.3467882,43.2952491 19.338782,43.1800362 C19.3273444,43.016648 19.3246757,42.8524952 19.3246757,42.6885972 C19.3245486,41.0863223 19.3269632,39.4840474 19.3260736,37.8817724 C19.3256923,37.240837 19.2775276,36.6051269 19.1201979,35.9802499 C18.8688261,34.9818231 18.3294826,34.2032439 17.4044397,33.7202164 C16.7484333,33.3777639 16.051887,33.2635706 15.3164532,33.36298 C14.7542346,33.4389389 14.2357327,33.6219541 13.800852,33.9877295 C13.5154219,34.2278414 13.2616356,34.5058052 12.9942513,34.7674557 C12.9552366,34.8055627 12.9196531,34.8472381 12.8672946,34.9035701 C12.8672946,34.4943349 12.8608133,34.1158147 12.8705988,33.7376768 C12.8744113,33.5908568 12.8425132,33.537711 12.6822606,33.5389855 C11.7464156,33.5468873 10.8104436,33.5428089 9.87447153,33.5428089 C9.82274843,33.5428089 9.77089825,33.5428089 9.70621261,33.5428089 L9.70621261,33.5428089 Z M22.9986678,35.950682 C22.9986678,38.9074731 22.9976511,41.8641368 23,44.8209279 C23,45.2997496 22.9343634,45.756268 22.6590999,46.1655031 C22.2985632,46.7014215 21.797599,46.9746698 21.1550634,46.9953164 C21.0864381,46.997483 21.0176858,46.9990442 20.9489335,46.9990442 C15.0253043,46.9990442 9.10180214,46.9992673 3.17817294,46.99863 C2.68902747,46.99863 2.22110499,46.9256024 1.81888482,46.6106786 C1.29034337,46.1968553 1.00110069,45.664378 1.0009736,44.988267 C1,38.9584522 0.999321514,32.9286375 1.00122777,26.8988228 C1.00160902,25.8215058 1.65698008,25.0888079 2.72550051,25.0346425 C3.64876418,24.9878691 4.57533203,25.0021433 5.50050196,25.0017609 C10.6570535,25 15.8134779,24.9994669 20.9700294,25.0076235 C21.2719804,25.0081333 21.5891816,25.0426717 21.8725784,25.1394047 C22.590983,25.3847419 22.982274,25.9955996 22.994474,26.8266873 C23.0040053,27.4770539 22.9982865,28.1278029 22.9984136,28.7784244 C22.9986678,31.1690919 22.9984136,33.5598869 22.9986678,35.950682 L22.9986678,35.950682 Z" id="Fill-1" fill="#F3B237"></path>
    </g>
</svg>