<?xml version="1.0" encoding="UTF-8"?>
<svg width="24px" height="48px" viewBox="0 0 24 48" version="1.1" xmlns="http://www.w3.org/2000/svg" xmlns:xlink="http://www.w3.org/1999/xlink">
    <title>Artboard</title>
    <g id="Artboard" stroke="none" stroke-width="1" fill="none" fill-rule="evenodd">
        <path d="M3.38668947,13.9017223 C4.07801646,14.0659947 4.73358157,14.043855 5.36419654,13.8286195 C3.20060296,13.1151363 1.92554649,11.6921384 1.80381057,9.33509578 C2.44055911,9.63586153 3.08967877,9.85736296 3.8216537,9.87334114 C2.7013921,9.05834953 1.99738212,8.02102102 1.87637391,6.63906509 C1.79039986,5.65781686 1.96525881,4.72815831 2.45615295,3.84152596 C2.55273081,3.95024025 2.63849694,4.04370738 2.72093639,4.13999419 C3.2091276,4.71040477 3.73308068,5.24969446 4.31244389,5.72246061 C4.78576897,6.10865218 5.27292058,6.482834 5.81090813,6.7886125 C6.40576122,7.12666067 7.00685184,7.44883508 7.64120933,7.70177071 C8.27494306,7.95439305 8.92593398,8.15448582 9.59730085,8.29150132 C10.2469403,8.42402623 10.9031292,8.49075862 11.5608774,8.55268713 C11.7795031,8.57326034 11.7737853,8.57221601 11.7438452,8.34862592 C11.6420694,7.58720821 11.7080833,6.84061991 11.9231743,6.10196849 C12.1611364,5.28499266 12.6158528,4.62487452 13.2677793,4.08370505 C13.5940025,3.81301588 13.939666,3.57992243 14.3214033,3.40468461 C14.7430607,3.21127553 15.1877971,3.09316232 15.6510382,3.03718647 C16.2553515,2.96418812 16.8484373,2.99551788 17.4359093,3.15916369 C18.1695476,3.36343375 18.8000586,3.74356823 19.3336799,4.28160473 C19.4611335,4.4101612 19.5693548,4.44389291 19.7487879,4.40285092 C20.6584287,4.19471685 21.5092287,3.84622543 22.3125195,3.3751302 C22.3302965,3.36468694 22.3507764,3.35894315 22.3961025,3.3401453 C22.0446173,4.40232875 21.4406158,5.23611823 20.490535,5.81018395 C21.3632704,5.7500308 22.1907836,5.53594408 22.9788963,5.16656615 C22.9859655,5.17502519 22.9929308,5.18358865 23,5.19204769 C22.7924979,5.45887285 22.5908176,5.73060635 22.3762463,5.99158329 C21.9451286,6.51593912 21.4433187,6.9669833 20.9051233,7.37782095 C20.8111444,7.44956611 20.7709123,7.52684619 20.7731994,7.6503899 C20.7987733,8.98294923 20.6517753,10.2961885 20.2837607,11.5785158 C19.9856064,12.6176197 19.558751,13.601792 19.0079765,14.535419 C18.2699719,15.7865209 17.3864249,16.9204496 16.3245882,17.906815 C15.4707734,18.6998758 14.5097769,19.3442246 13.4493956,19.8370418 C12.3409853,20.352312 11.1880806,20.6988192 9.97425598,20.8645537 C9.27263706,20.9603183 8.56935479,20.9838156 7.86628044,20.9981229 C7.09230609,21.0138922 6.32186635,20.9289885 5.55766414,20.7930174 C4.20016822,20.5515693 2.92843844,20.0735815 1.72147508,19.4146121 C1.49401291,19.2903374 1.27455558,19.1515465 1.05073197,19.0204837 C1.03201936,19.0095183 1.00883651,19.0062809 1,18.9805905 C3.45478258,19.2439694 5.62970769,18.5957565 7.56854202,17.0835732 C6.62511459,17.0048311 5.76547807,16.7094958 5.01115196,16.1449335 C4.25516251,15.5791179 3.70854637,14.852894 3.38668947,13.9017223" id="Fill-4" fill="#FFFFFF"></path>
        <path d="M3.38668947,37.9017223 C4.07801646,38.0659947 4.73358157,38.043855 5.36419654,37.8286195 C3.20060296,37.1151363 1.92554649,35.6921384 1.80381057,33.3350958 C2.44055911,33.6358615 3.08967877,33.857363 3.8216537,33.8733411 C2.7013921,33.0583495 1.99738212,32.021021 1.87637391,30.6390651 C1.79039986,29.6578169 1.96525881,28.7281583 2.45615295,27.841526 C2.55273081,27.9502402 2.63849694,28.0437074 2.72093639,28.1399942 C3.2091276,28.7104048 3.73308068,29.2496945 4.31244389,29.7224606 C4.78576897,30.1086522 5.27292058,30.482834 5.81090813,30.7886125 C6.40576122,31.1266607 7.00685184,31.4488351 7.64120933,31.7017707 C8.27494306,31.9543931 8.92593398,32.1544858 9.59730085,32.2915013 C10.2469403,32.4240262 10.9031292,32.4907586 11.5608774,32.5526871 C11.7795031,32.5732603 11.7737853,32.572216 11.7438452,32.3486259 C11.6420694,31.5872082 11.7080833,30.8406199 11.9231743,30.1019685 C12.1611364,29.2849927 12.6158528,28.6248745 13.2677793,28.083705 C13.5940025,27.8130159 13.939666,27.5799224 14.3214033,27.4046846 C14.7430607,27.2112755 15.1877971,27.0931623 15.6510382,27.0371865 C16.2553515,26.9641881 16.8484373,26.9955179 17.4359093,27.1591637 C18.1695476,27.3634338 18.8000586,27.7435682 19.3336799,28.2816047 C19.4611335,28.4101612 19.5693548,28.4438929 19.7487879,28.4028509 C20.6584287,28.1947168 21.5092287,27.8462254 22.3125195,27.3751302 C22.3302965,27.3646869 22.3507764,27.3589432 22.3961025,27.3401453 C22.0446173,28.4023288 21.4406158,29.2361182 20.490535,29.810184 C21.3632704,29.7500308 22.1907836,29.5359441 22.9788963,29.1665661 C22.9859655,29.1750252 22.9929308,29.1835887 23,29.1920477 C22.7924979,29.4588729 22.5908176,29.7306063 22.3762463,29.9915833 C21.9451286,30.5159391 21.4433187,30.9669833 20.9051233,31.3778209 C20.8111444,31.4495661 20.7709123,31.5268462 20.7731994,31.6503899 C20.7987733,32.9829492 20.6517753,34.2961885 20.2837607,35.5785158 C19.9856064,36.6176197 19.558751,37.601792 19.0079765,38.535419 C18.2699719,39.7865209 17.3864249,40.9204496 16.3245882,41.906815 C15.4707734,42.6998758 14.5097769,43.3442246 13.4493956,43.8370418 C12.3409853,44.352312 11.1880806,44.6988192 9.97425598,44.8645537 C9.27263706,44.9603183 8.56935479,44.9838156 7.86628044,44.9981229 C7.09230609,45.0138922 6.32186635,44.9289885 5.55766414,44.7930174 C4.20016822,44.5515693 2.92843844,44.0735815 1.72147508,43.4146121 C1.49401291,43.2903374 1.27455558,43.1515465 1.05073197,43.0204837 C1.03201936,43.0095183 1.00883651,43.0062809 1,42.9805905 C3.45478258,43.2439694 5.62970769,42.5957565 7.56854202,41.0835732 C6.62511459,41.0048311 5.76547807,40.7094958 5.01115196,40.1449335 C4.25516251,39.5791179 3.70854637,38.852894 3.38668947,37.9017223" id="Fill-4" fill="#F3B237"></path>
    </g>
</svg>