<?xml version="1.0" encoding="UTF-8"?>
<svg width="24px" height="48px" viewBox="0 0 24 48" version="1.1" xmlns="http://www.w3.org/2000/svg" xmlns:xlink="http://www.w3.org/1999/xlink">
    <title>Artboard</title>
    <g id="Artboard" stroke="none" stroke-width="1" fill="none" fill-rule="evenodd">
        <path d="M17.9962366,28.6617852 C17.3733048,28.6617852 16.773126,28.6473828 16.1741959,28.6666285 C15.7495201,28.6803936 15.323457,28.7220714 14.9036371,28.7835047 C14.4324843,28.8525852 14.1803981,29.1512121 14.0768998,29.5598326 C14.0393019,29.7081902 14.016549,29.8629204 14.0148841,30.0148467 C14.0073923,30.7447811 14.0126643,31.4747154 14.0050338,32.2045224 C14.0037851,32.3336342 14.0737089,32.3351637 14.1766521,32.3349087 C15.2389658,32.332742 16.3012795,32.332742 17.3635932,32.332742 C17.5252225,32.332742 17.6868518,32.3389873 17.8484811,32.3365657 C17.9608585,32.3349087 18.0035897,32.3726354 17.9888835,32.4793152 C17.8681818,33.3488127 17.7503936,34.2186926 17.6327441,35.0885724 C17.5994471,35.3348153 17.5662888,35.5811857 17.5389575,35.8280659 C17.5257774,35.9478735 17.4754157,35.9954142 17.3326547,35.9946495 C16.3108524,35.9899337 15.2889114,35.9940122 14.267109,35.9946495 C14.0079472,35.9947769 14.0085022,35.9936299 14.0085022,36.2233036 C14.0093346,39.7459029 14.0100283,43.2685021 14.0105833,46.7911014 C14.010722,46.9996176 14.0103058,47 13.7862446,47 C12.2042199,47 10.622334,47 9.04030929,47 L8.83927853,47 C8.83372903,46.9250565 8.82484982,46.862986 8.82484982,46.8009154 C8.82318497,43.3417887 8.82457235,39.882662 8.81832916,36.4236628 C8.81749673,35.9282455 8.94000202,36.0093068 8.35730416,36.0001301 C7.63586872,35.9887866 6.91401707,35.9914631 6.19244289,35.9952868 C6.04607474,35.9960515 6.00473094,35.9460892 6.00500842,35.8192715 C6.00750569,34.7190806 6.00819938,33.6188897 6,32.5188262 C5.99890396,32.3640959 6.0643881,32.3323596 6.21255984,32.3328695 C7.01501803,32.335546 7.81761496,32.3294282 8.62007315,32.3333793 C8.76574761,32.334144 8.81791294,32.304447 8.81791294,32.1582562 C8.81832916,31.3123379 8.82471108,30.4661646 8.84288571,29.6203737 C8.86272518,28.6909724 9.03864444,27.7864248 9.53157908,26.9656151 C9.75050699,26.601094 10.0299245,26.2653777 10.4274077,26.0159484 C10.7971433,25.7839804 11.1760357,25.5851508 11.5909998,25.4346265 C12.1703679,25.2244533 12.7772061,25.0950866 13.3901488,25.0740565 C14.8543852,25.0238393 16.3207028,25.0252413 17.7860491,25 C17.9496208,24.9973286 18.0010924,25.0382417 18,25.1932269 C17.9929069,26.3039965 17.9962366,27.4146388 17.9962366,28.5254085 C17.9962366,28.5669588 17.9962366,28.6085091 17.9962366,28.6617852" id="Fill-12" fill="#F3B237"></path>
        <path d="M17.9962366,4.66178523 C17.3733048,4.66178523 16.773126,4.64738282 16.1741959,4.66662851 C15.7495201,4.68039364 15.323457,4.72207141 14.9036371,4.78350468 C14.4324843,4.85258525 14.1803981,5.15121214 14.0768998,5.55983263 C14.0393019,5.70819017 14.016549,5.86292045 14.0148841,6.01484672 C14.0073923,6.74478108 14.0126643,7.47471545 14.0050338,8.20452235 C14.0037851,8.33363419 14.0737089,8.33516365 14.1766521,8.33490874 C15.2389658,8.33274201 16.3012795,8.33274201 17.3635932,8.33274201 C17.5252225,8.33274201 17.6868518,8.3389873 17.8484811,8.33656566 C17.9608585,8.33490874 18.0035897,8.3726354 17.9888835,8.47931517 C17.8681818,9.34881268 17.7503936,10.2186926 17.6327441,11.0885724 C17.5994471,11.3348153 17.5662888,11.5811857 17.5389575,11.8280659 C17.5257774,11.9478735 17.4754157,11.9954142 17.3326547,11.9946495 C16.3108524,11.9899337 15.2889114,11.9940122 14.267109,11.9946495 C14.0079472,11.9947769 14.0085022,11.9936299 14.0085022,12.2233036 C14.0093346,15.7459029 14.0100283,19.2685021 14.0105833,22.7911014 C14.010722,22.9996176 14.0103058,23 13.7862446,23 C12.2042199,23 10.622334,23 9.04030929,23 L8.83927853,23 C8.83372903,22.9250565 8.82484982,22.862986 8.82484982,22.8009154 C8.82318497,19.3417887 8.82457235,15.882662 8.81832916,12.4236628 C8.81749673,11.9282455 8.94000202,12.0093068 8.35730416,12.0001301 C7.63586872,11.9887866 6.91401707,11.9914631 6.19244289,11.9952868 C6.04607474,11.9960515 6.00473094,11.9460892 6.00500842,11.8192715 C6.00750569,10.7190806 6.00819938,9.61888967 6,8.5188262 C5.99890396,8.36409592 6.0643881,8.33235964 6.21255984,8.33286946 C7.01501803,8.33554602 7.81761496,8.32942818 8.62007315,8.33337928 C8.76574761,8.33414401 8.81791294,8.30444701 8.81791294,8.15825621 C8.81832916,7.31233787 8.82471108,6.46616461 8.84288571,5.62037372 C8.86272518,4.6909724 9.03864444,3.78642479 9.53157908,2.96561507 C9.75050699,2.60109398 10.0299245,2.2653777 10.4274077,2.01594841 C10.7971433,1.78398045 11.1760357,1.58515076 11.5909998,1.43462649 C12.1703679,1.22445332 12.7772061,1.09508657 13.3901488,1.07405651 C14.8543852,1.02383927 16.3207028,1.02524127 17.7860491,1 C17.9496208,0.997328643 18.0010924,1.03824167 18,1.19322686 C17.9929069,2.30399655 17.9962366,3.41463877 17.9962366,4.52540845 C17.9962366,4.56695876 17.9962366,4.60850907 17.9962366,4.66178523" id="Fill-12" fill="#FFFFFF"></path>
    </g>
</svg>