<?xml version="1.0" encoding="UTF-8"?>
<svg width="24px" height="48px" viewBox="0 0 24 48" version="1.1" xmlns="http://www.w3.org/2000/svg" xmlns:xlink="http://www.w3.org/1999/xlink">
    <title>Artboard</title>
    <g id="Artboard" stroke="none" stroke-width="1" fill="none" fill-rule="evenodd">
        <g id="Group-6" transform="translate(1.000000, 1.000000)" fill="#F3B237">
            <path d="M0,16.8497402 L0,0.85525606 C0.218316786,0.28583594 0.607740914,-0.00109755681 1.22430401,0 C5.54708827,0.00753202206 9.86987253,0.0031291757 14.1926568,0.00475822885 C14.9779603,0.0050664281 15.4129585,0.454993298 15.4136471,1.25727996 C15.4146369,2.39951039 15.4141973,3.54169679 15.4134319,4.68392723 C15.4133889,4.76088898 15.4064603,4.83785073 15.4028023,4.91357969 L13.2443796,4.91357969 C13.2443796,4.81689319 13.2443796,4.73790612 13.2443796,4.65887503 C13.2443365,4.05115015 13.2471338,3.44342526 13.2433037,2.83574441 C13.2406355,2.4177822 13.0411681,2.21547141 12.6390916,2.21538336 C9.89797442,2.21476696 7.15685719,2.21494307 4.41578299,2.2156035 C4.36500164,2.2156035 4.31426332,2.22427711 4.22040389,2.23281863 C4.32648527,2.28935118 4.38910127,2.32320906 4.45210457,2.35627444 C5.88159968,3.10629932 7.30610273,3.86658283 8.74321504,4.60106566 C9.30667289,4.88905584 9.56079484,5.3077225 9.55756721,5.95718636 C9.54297833,8.88587171 9.55119802,11.8146451 9.55119802,14.7433745 C9.55119802,14.8341171 9.55119802,14.9248598 9.55119802,15.0287229 C10.5870085,15.0287229 11.5813763,15.0299117 12.575701,15.0282386 C13.0637184,15.0274461 13.2437771,14.8403251 13.2440783,14.3372119 C13.244939,13.0266166 13.2443796,11.7159773 13.2443796,10.405382 C13.2443796,10.3193504 13.2443796,10.2332748 13.2443796,10.1409911 L15.4139053,10.1409911 C15.4139053,10.2297085 15.4139053,10.3018271 15.4139053,10.3739457 C15.4139053,12.2410167 15.4141973,14.1080878 15.4136901,15.9751588 C15.4134319,16.7912704 14.97512,17.2412413 14.1809943,17.2415495 C12.7138005,17.2420778 11.2466497,17.2416816 9.7794559,17.2417256 L9.53363972,17.2417256 C9.53363972,17.3464253 9.53363972,17.4255885 9.53363972,17.5047076 C9.53359669,18.8006854 9.53566237,20.0966633 9.53247778,21.3926411 C9.53127279,21.8792437 9.13702874,22.1320991 8.70624793,21.9300525 C8.64784938,21.9026228 8.5915165,21.870526 8.534409,21.8402785 C5.96581927,20.4805034 3.39886487,19.1174262 0.826875366,17.7643435 C0.434653961,17.5580261 0.123553616,17.2987865 0,16.8497402" id="Fill-1"></path>
            <path d="M18.1734846,6.25753974 C18.0974847,6.17265286 18.0535459,6.11929036 18.0053467,6.07033071 C17.5583847,5.61648531 17.1072483,5.16686664 16.6643746,4.70892659 C16.3139403,4.34661636 16.1775192,3.9168105 16.3589119,3.42558493 C16.6106239,2.74406834 17.4627608,2.53088252 18.0405493,2.99555893 C18.1190452,3.05869574 18.192377,3.12940546 18.2630835,3.20170019 C19.3665452,4.32984152 20.4700068,5.45802687 21.5717039,6.58797336 C22.1433384,7.17434443 22.1429081,7.78154098 21.5695522,8.36954111 C20.4627338,9.5045949 19.3544953,10.6382398 18.2450088,11.7705638 C17.8285157,12.1956146 17.3605095,12.3112333 16.9240481,12.1057965 C16.2809324,11.8031449 16.0821105,11.0054812 16.5029932,10.4010584 C16.5730543,10.3004094 16.6592535,10.2108115 16.7432579,10.1213016 C17.1939209,9.64103911 17.6462192,9.16244971 18.111385,8.66902272 C18.0547079,8.66902272 17.982409,8.66902272 17.9101101,8.66902272 C16.0137278,8.66902272 14.1173455,8.66972717 12.2209631,8.66858243 C11.6415393,8.6682302 11.2648535,8.42550128 11.0666341,7.93242652 C10.7363401,7.11081136 11.2805613,6.26176647 12.1506008,6.2593449 C14.0684146,6.2539294 15.9862284,6.25758377 17.9040852,6.25753974 C17.979999,6.25753974 18.0559559,6.25753974 18.1734846,6.25753974" id="Fill-3"></path>
        </g>
        <g id="Group-6" transform="translate(1.000000, 25.000000)" fill="#FFFFFF">
            <path d="M0,16.8497402 L0,0.85525606 C0.218316786,0.28583594 0.607740914,-0.00109755681 1.22430401,0 C5.54708827,0.00753202206 9.86987253,0.0031291757 14.1926568,0.00475822885 C14.9779603,0.0050664281 15.4129585,0.454993298 15.4136471,1.25727996 C15.4146369,2.39951039 15.4141973,3.54169679 15.4134319,4.68392723 C15.4133889,4.76088898 15.4064603,4.83785073 15.4028023,4.91357969 L13.2443796,4.91357969 C13.2443796,4.81689319 13.2443796,4.73790612 13.2443796,4.65887503 C13.2443365,4.05115015 13.2471338,3.44342526 13.2433037,2.83574441 C13.2406355,2.4177822 13.0411681,2.21547141 12.6390916,2.21538336 C9.89797442,2.21476696 7.15685719,2.21494307 4.41578299,2.2156035 C4.36500164,2.2156035 4.31426332,2.22427711 4.22040389,2.23281863 C4.32648527,2.28935118 4.38910127,2.32320906 4.45210457,2.35627444 C5.88159968,3.10629932 7.30610273,3.86658283 8.74321504,4.60106566 C9.30667289,4.88905584 9.56079484,5.3077225 9.55756721,5.95718636 C9.54297833,8.88587171 9.55119802,11.8146451 9.55119802,14.7433745 C9.55119802,14.8341171 9.55119802,14.9248598 9.55119802,15.0287229 C10.5870085,15.0287229 11.5813763,15.0299117 12.575701,15.0282386 C13.0637184,15.0274461 13.2437771,14.8403251 13.2440783,14.3372119 C13.244939,13.0266166 13.2443796,11.7159773 13.2443796,10.405382 C13.2443796,10.3193504 13.2443796,10.2332748 13.2443796,10.1409911 L15.4139053,10.1409911 C15.4139053,10.2297085 15.4139053,10.3018271 15.4139053,10.3739457 C15.4139053,12.2410167 15.4141973,14.1080878 15.4136901,15.9751588 C15.4134319,16.7912704 14.97512,17.2412413 14.1809943,17.2415495 C12.7138005,17.2420778 11.2466497,17.2416816 9.7794559,17.2417256 L9.53363972,17.2417256 C9.53363972,17.3464253 9.53363972,17.4255885 9.53363972,17.5047076 C9.53359669,18.8006854 9.53566237,20.0966633 9.53247778,21.3926411 C9.53127279,21.8792437 9.13702874,22.1320991 8.70624793,21.9300525 C8.64784938,21.9026228 8.5915165,21.870526 8.534409,21.8402785 C5.96581927,20.4805034 3.39886487,19.1174262 0.826875366,17.7643435 C0.434653961,17.5580261 0.123553616,17.2987865 0,16.8497402" id="Fill-1"></path>
            <path d="M18.1734846,6.25753974 C18.0974847,6.17265286 18.0535459,6.11929036 18.0053467,6.07033071 C17.5583847,5.61648531 17.1072483,5.16686664 16.6643746,4.70892659 C16.3139403,4.34661636 16.1775192,3.9168105 16.3589119,3.42558493 C16.6106239,2.74406834 17.4627608,2.53088252 18.0405493,2.99555893 C18.1190452,3.05869574 18.192377,3.12940546 18.2630835,3.20170019 C19.3665452,4.32984152 20.4700068,5.45802687 21.5717039,6.58797336 C22.1433384,7.17434443 22.1429081,7.78154098 21.5695522,8.36954111 C20.4627338,9.5045949 19.3544953,10.6382398 18.2450088,11.7705638 C17.8285157,12.1956146 17.3605095,12.3112333 16.9240481,12.1057965 C16.2809324,11.8031449 16.0821105,11.0054812 16.5029932,10.4010584 C16.5730543,10.3004094 16.6592535,10.2108115 16.7432579,10.1213016 C17.1939209,9.64103911 17.6462192,9.16244971 18.111385,8.66902272 C18.0547079,8.66902272 17.982409,8.66902272 17.9101101,8.66902272 C16.0137278,8.66902272 14.1173455,8.66972717 12.2209631,8.66858243 C11.6415393,8.6682302 11.2648535,8.42550128 11.0666341,7.93242652 C10.7363401,7.11081136 11.2805613,6.26176647 12.1506008,6.2593449 C14.0684146,6.2539294 15.9862284,6.25758377 17.9040852,6.25753974 C17.979999,6.25753974 18.0559559,6.25753974 18.1734846,6.25753974" id="Fill-3"></path>
        </g>
    </g>
</svg>